<svg xmlns="http://www.w3.org/2000/svg" viewBox="0 0 640 360" role="img" aria-label="Inventory dashboard mockup">
  <defs><linearGradient id="g" x1="0" y1="0" x2="1" y2="1"><stop offset="0" stop-color="#dbe4ff"/><stop offset="1" stop-color="#e9ddff"/></linearGradient></defs>
  <rect width="640" height="360" fill="url(#g)"/>
  <rect x="50" y="36" width="540" height="296" rx="18" fill="#fff"/>
  <path d="M50 54a18 18 0 0 1 18-18h92v296H68a18 18 0 0 1-18-18z" fill="#17254a"/>
  <rect x="70" y="60" width="70" height="10" rx="5" fill="#7f9bff"/>
  <g fill="#fff" opacity=".35"><rect x="70" y="96" width="60" height="8" rx="4"/><rect x="70" y="122" width="72" height="8" rx="4"/><rect x="70" y="148" width="54" height="8" rx="4"/><rect x="70" y="174" width="66" height="8" rx="4"/></g>
  <rect x="62" y="90" width="88" height="20" rx="8" fill="#2b50e6" opacity=".55"/>
  <g>
    <rect x="180" y="58" width="116" height="62" rx="12" fill="#eef2ff"/><rect x="194" y="72" width="40" height="8" rx="4" fill="#7f8db8"/><rect x="194" y="92" width="64" height="16" rx="6" fill="#2b50e6"/>
    <rect x="308" y="58" width="116" height="62" rx="12" fill="#e7f8ef"/><rect x="322" y="72" width="40" height="8" rx="4" fill="#7fae96"/><rect x="322" y="92" width="52" height="16" rx="6" fill="#138a52"/>
    <rect x="436" y="58" width="132" height="62" rx="12" fill="#fff4e0"/><rect x="450" y="72" width="40" height="8" rx="4" fill="#b99a66"/><rect x="450" y="92" width="70" height="16" rx="6" fill="#f08c00"/>
  </g>
  <rect x="180" y="136" width="244" height="112" rx="12" fill="#f6f8fd"/>
  <g fill="#2b50e6"><rect x="200" y="196" width="22" height="42" rx="4" opacity=".5"/><rect x="236" y="174" width="22" height="64" rx="4" opacity=".7"/><rect x="272" y="156" width="22" height="82" rx="4"/><rect x="308" y="184" width="22" height="54" rx="4" opacity=".6"/><rect x="344" y="166" width="22" height="72" rx="4" opacity=".85"/><rect x="380" y="146" width="22" height="92" rx="4"/></g>
  <rect x="436" y="136" width="132" height="112" rx="12" fill="#f6f8fd"/>
  <circle cx="502" cy="192" r="34" fill="none" stroke="#dbe4ff" stroke-width="14"/><path d="M502 158a34 34 0 0 1 30 50" fill="none" stroke="#2b50e6" stroke-width="14" stroke-linecap="round"/>
  <g fill="#e4e9f5"><rect x="180" y="262" width="388" height="10" rx="5"/><rect x="180" y="282" width="388" height="10" rx="5"/><rect x="180" y="302" width="300" height="10" rx="5"/></g>
</svg>
